<?xml version="1.0" encoding="UTF-8"?>
<svg width="32" height="32" fill="#d40000" version="1.1" viewBox="0 0 8.4667 8.4667" xmlns="http://www.w3.org/2000/svg">
 <path d="m1.7222 8.4023c-0.5773-0.1762-1.147-0.66747-1.4263-1.2298-0.16867-0.3397-0.17811-0.43682-0.19951-2.0517-0.0221-1.666-0.0196-1.6982 0.14257-1.8708 0.1956-0.20821 0.43312-0.22499 0.65141-0.046 0.15099 0.12379 0.15932 0.20202 0.18386 1.7263 0.0282 1.7497 0.0568 1.8807 0.49013 2.2454 0.33303 0.28022 0.76186 0.37813 1.1636 0.26567 0.64278-0.17997 0.98442-0.65311 0.98442-1.3633v-0.41047h-0.81502v0.33679c0 0.25878-0.0421 0.3789-0.18186 0.51865-0.21201 0.21201-0.271 0.21968-0.55596 0.0723-0.27094-0.14011-0.27748-0.20018-0.26909-2.4712 7e-3 -1.8014 7e-3 -1.8029 0.18158-1.9449 0.23273-0.18911 0.46806-0.17947 0.66216 0.0271 0.14579 0.15518 0.16075 0.26158 0.17963 1.2781l0.0206 1.1088 0.86976 0.0209c0.86766 0.0208 0.86989 0.0213 0.9181 0.21341 0.0266 0.1059 0.0302 0.58661 8e-3 1.0682-0.0336 0.72999-0.0714 0.94104-0.22727 1.2684-0.2172 0.45634-0.61762 0.86582-1.0787 1.1031-0.37094 0.19091-1.2822 0.26323-1.702 0.13509zm4.174-2.0094c-0.3029-0.1595-0.3315-0.27393-0.3315-1.3263 0-0.55939-0.0202-1.0698-0.045-1.1343-0.0376-0.0979-0.1918-0.1172-0.93533-0.1172h-0.89036l0.0329-1.0929c0.0285-0.94487 0.0552-1.136 0.19761-1.4111 0.23987-0.46348 0.65161-0.88795 1.0797-1.1131 0.32524-0.17105 0.46391-0.1974 1.042-0.198 0.60235-5.6e-4 0.70594 0.0208 1.0712 0.2216 0.23186 0.12744 0.53714 0.38582 0.71549 0.60555 0.47719 0.58797 0.54718 0.93175 0.54718 2.6878 0 1.4857-8.4e-4 1.4932-0.18186 1.6742-0.23881 0.23881-0.50754 0.23369-0.70187-0.0134-0.14396-0.18301-0.15357-0.28977-0.15357-1.7071 0-1.3585-0.0148-1.5409-0.14611-1.7983-0.38632-0.75724-1.3527-0.94701-2.0093-0.39455-0.30665 0.25804-0.43785 0.58524-0.43785 1.092v0.40989h0.73185l0.0504-0.35194c0.064-0.44689 0.28887-0.71141 0.54944-0.64641 0.45069 0.11242 0.44653 0.091 0.44653 2.3012 0 1.7418-0.0161 2.0369-0.11692 2.1377-0.20374 0.20375-0.35923 0.25646-0.51479 0.17455z"/>
</svg>
